<?xml version="1.0" standalone="no"?><!DOCTYPE svg PUBLIC "-//W3C//DTD SVG 1.1//EN" "http://www.w3.org/Graphics/SVG/1.1/DTD/svg11.dtd"><svg t="1695349470966" class="icon" viewBox="0 0 1024 1024" version="1.1" xmlns="http://www.w3.org/2000/svg" p-id="5289" xmlns:xlink="http://www.w3.org/1999/xlink" width="200" height="200"><path d="M893.3888 866.0992h-35.84v-481.28a23.0912 23.0912 0 0 0-23.04-23.04h-128.512a23.04 23.04 0 0 0-23.04 23.04v481.28h-82.7904v-332.1344a23.0912 23.0912 0 0 0-23.04-23.04H448.6656a23.0912 23.0912 0 0 0-23.04 23.04v332.1344H343.296V701.44a23.0912 23.0912 0 0 0-23.04-23.04H191.7952A23.0912 23.0912 0 0 0 168.96 701.44v164.9152h-42.496a25.6 25.6 0 1 0 0 51.2h766.9248a25.6 25.6 0 0 0 0-51.2zM161.8432 521.7792a28.1088 28.1088 0 0 0 19.9168-8.2432l231.168-231.168 102.4 102.4a28.16 28.16 0 0 0 39.8336 0L739.6864 199.68v54.784a28.16 28.16 0 0 0 56.32 0V130.9184a28.16 28.16 0 0 0-28.16-28.16h-123.6992a28.16 28.16 0 0 0 0 56.32h56.6272L535.04 324.8128l-102.4-102.4a28.2112 28.2112 0 0 0-39.8336 0l-250.88 250.88a28.16 28.16 0 0 0 19.9168 48.0768z" fill="#ffffff" p-id="5290"></path></svg>