<?xml version="1.0" standalone="no"?><!DOCTYPE svg PUBLIC "-//W3C//DTD SVG 1.1//EN" "http://www.w3.org/Graphics/SVG/1.1/DTD/svg11.dtd"><svg t="1701155283073" class="icon" viewBox="0 0 1024 1024" version="1.1" xmlns="http://www.w3.org/2000/svg" p-id="5400" xmlns:xlink="http://www.w3.org/1999/xlink" width="200" height="200"><path d="M979.921617 39.34916C958.277054 16.41653 928.916721 3.58638 898.381975 3.700033H132.853926c-30.812564 0-60.362318 13.082712-82.08265 36.343672S16.814315 94.862287 16.91534 127.707975v761.865901c0.656661 67.762385 52.381359 122.328405 115.938586 122.315776h765.528049c30.812564 0.113653 60.387574-12.943802 82.08265-36.242647s33.767539-54.919607 33.439209-87.765295V126.01581c-0.06314-32.56787-12.312397-63.721393-33.982217-86.66665z m-35.699639 839.074103c0 42.821887-15.835637 59.705657-56.397094 59.705657H142.628075c-40.548829-0.416727-56.005623-18.538051-56.005623-59.705657v-741.269469c0-42.821887 17.376266-59.705657 56.005623-59.705657H887.824884c40.561457 0 56.397095 18.525423 56.397094 59.705657z" p-id="5401" fill="#ffffff"></path><path d="M838.524781 251.791686a55.045888 55.045888 0 0 1-22.566414-4.899703L613.643577 470.712427a66.007079 66.007079 0 0 1 4.937587 24.056531c0 33.767539-25.685555 61.14526-57.369458 61.14526s-57.369458-27.377721-57.369459-61.14526a69.100963 69.100963 0 0 1 0-15.494679L360.083957 343.926303a53.03802 53.03802 0 0 1-63.519343 4.482976l-63.87293 65.66612a58.985855 58.985855 0 0 1 4.975472 24.05653c0.151537 24.612167-13.62572 46.888135-34.904069 56.409723s-45.865259 4.445091-62.231276-12.905918-21.328861-43.491176-12.527075-66.247013 29.600266-37.581226 52.671805-37.581226a59.503607 59.503607 0 0 1 25.2562 6.920199l65.779772-68.898913a56.82645 56.82645 0 0 1-3.434843-19.560927c0-33.780167 25.672927-61.157888 57.35683-61.157888s57.369458 27.377721 57.369459 61.157888a55.62678 55.62678 0 0 1 0 11.36529l145.740902 137.810455a52.545524 52.545524 0 0 1 57.35683-4.078876l201.165633-222.999618a64.112864 64.112864 0 0 1-6.112001-26.51901c0-32.934085 24.940497-59.693029 55.841458-59.907706s56.169789 26.178051 56.586516 59.112136-24.170183 60.059244-55.058516 60.728533zM136.667612 620.292271h58.708037v247.333967h-58.708037z" p-id="5402" fill="#ffffff"></path><path d="M297.915821 496.410611h58.303938v371.202999h-58.303938zM414.927795 635.72381h58.303938v231.8898h-58.303938zM546.411572 682.018424h58.708037v185.607814h-58.708037zM692.783879 604.860733h58.708037v262.752877h-58.708037zM882.975693 867.626238h-59.099508V434.684458h58.303938l0.79557 432.94178z" p-id="5403" fill="#ffffff"></path></svg>