<?xml version="1.0" standalone="no"?><!DOCTYPE svg PUBLIC "-//W3C//DTD SVG 1.1//EN" "http://www.w3.org/Graphics/SVG/1.1/DTD/svg11.dtd"><svg t="1703468594111" class="icon" viewBox="0 0 1068 1024" version="1.1" xmlns="http://www.w3.org/2000/svg" p-id="32745" xmlns:xlink="http://www.w3.org/1999/xlink" width="208.59375" height="200"><path d="M962.548216 0.176755H105.52267A106.052934 106.052934 0 0 0 0 106.229689v567.02969a106.052934 106.052934 0 0 0 105.52267 106.052934h391.983429v171.452244H330.295972a36.647181 36.647181 0 0 0 0 73.235443h407.478942a36.647181 36.647181 0 0 0 0-73.235443H570.505869v-171.982509h391.983429a106.052934 106.052934 0 0 0 105.52267-106.052934V105.994016a106.052934 106.052934 0 0 0-105.52267-106.052934z m32.463982 672.84695a32.581818 32.581818 0 0 1-32.463982 32.581819H105.52267a32.581818 32.581818 0 0 1-32.463982-32.581819V105.935098a32.581818 32.581818 0 0 1 32.463982-32.581818h857.025546a32.581818 32.581818 0 0 1 32.463982 32.581818v567.029689z" p-id="32746" fill="#2c2c2c"></path><path d="M234.848331 577.0458a36.529344 36.529344 0 0 1-24.627848-9.485846 36.116916 36.116916 0 0 1-2.41565-51.258918l190.070426-206.979977a60.803682 60.803682 0 0 1 84.842347-4.949137l147.295743 126.497583 184.885615-196.080092a36.765017 36.765017 0 0 1 51.671347-1.70863 36.057998 36.057998 0 0 1 1.70863 51.258918l-192.898504 204.623245a60.980437 60.980437 0 0 1-84.312083 4.418872l-147.295742-126.379747-181.998619 198.260069a36.529344 36.529344 0 0 1-27.043498 11.78366z" p-id="32747" fill="#2c2c2c"></path></svg>