<?xml version="1.0" standalone="no"?><!DOCTYPE svg PUBLIC "-//W3C//DTD SVG 1.1//EN" "http://www.w3.org/Graphics/SVG/1.1/DTD/svg11.dtd"><svg t="1701400099920" class="icon" viewBox="0 0 1024 1024" version="1.1" xmlns="http://www.w3.org/2000/svg" p-id="3342" xmlns:xlink="http://www.w3.org/1999/xlink" width="200" height="200"><path d="M512 981.333333C253.013333 981.333333 42.666667 770.986667 42.666667 512 42.666667 253.44 253.013333 42.666667 512 42.666667s469.333333 210.346667 469.333333 469.333333-210.346667 469.333333-469.333333 469.333333z m0-853.333333c-211.626667 0-384 172.373333-384 384s172.373333 384 384 384 384-172.373333 384-384-172.373333-384-384-384z" p-id="3343" fill="#d81e06"></path><path d="M725.333333 554.666667H298.666667c-23.466667 0-42.666667-19.2-42.666667-42.666667s19.2-42.666667 42.666667-42.666667h426.666666c23.466667 0 42.666667 19.2 42.666667 42.666667s-19.2 42.666667-42.666667 42.666667z" p-id="3344" fill="#d81e06"></path></svg>