<?xml version="1.0" standalone="no"?><!DOCTYPE svg PUBLIC "-//W3C//DTD SVG 1.1//EN" "http://www.w3.org/Graphics/SVG/1.1/DTD/svg11.dtd"><svg t="1703468464715" class="icon" viewBox="0 0 1024 1024" version="1.1" xmlns="http://www.w3.org/2000/svg" p-id="20910" xmlns:xlink="http://www.w3.org/1999/xlink" width="200" height="200"><path d="M764 487.2c-47.2 0-85.6 38.4-86.4 86.4 0 48 39.2 86.4 86.4 86.4 48 0 86.4-39.2 86.4-86.4 0-48-39.2-86.4-86.4-86.4z m30.4 116.8c-8 8-19.2 12.8-30.4 12.8s-22.4-4.8-30.4-12.8-12.8-19.2-12.8-30.4 4.8-22.4 12.8-30.4 19.2-12.8 30.4-12.8c12 0 22.4 4 30.4 12.8 8 8 12.8 19.2 12.8 30.4s-4.8 22.4-12.8 30.4z" p-id="20911" fill="#2c2c2c"></path><path d="M931.2 136.8H90.4c-16.8 0.8-30.4 15.2-30.4 32v502.4c0.8 16.8 15.2 30.4 32 30.4h384v113.6H300.8c-8 0.8-14.4 8-14.4 16v50.4c0.8 3.2 4 6.4 8 6.4h437.6c3.2-0.8 6.4-4 6.4-8v-50.4c-0.8-8-8-14.4-16-14.4H548.8v-1.6h-8v-184h-408V209.6h757.6v144.8h72.8V167.2c-0.8-16.8-15.2-30.4-32-30.4z" p-id="20912" fill="#2c2c2c"></path><path d="M918.4 603.2l0.8-6.4c0.8-6.4 0.8-12.8 0.8-19.2 0-8.8-0.8-16.8-2.4-25.6l28.8-24.8 1.6-1.6c4-4 4.8-9.6 3.2-14.4v-0.8l-2.4-6.4c-8-20-19.2-38.4-32.8-55.2l-0.8-0.8-1.6-1.6c-4-4-9.6-4.8-14.4-3.2l-36 12.8-4.8-3.2c-12-9.6-24.8-16.8-39.2-22.4l-7.2-37.6-0.8-1.6c-1.6-4.8-5.6-8.8-11.2-9.6h-0.8l-6.4-0.8c-20.8-3.2-43.2-3.2-64 0.8H728l-2.4 1.6c-4.8 1.6-8.8 5.6-9.6 11.2l-7.2 38.4-5.6 2.4c-13.6 5.6-26.4 13.6-38.4 23.2l-36-12.8-1.6-0.8c-4.8-0.8-10.4 0.8-13.6 4.8l-0.8 0.8-4 4.8c-13.6 16.8-24 36-31.2 56v0.8l-0.8 1.6c-0.8 4.8 0.8 10.4 4.8 13.6l29.6 24.8-0.8 6.4c-0.8 6.4-0.8 12.8-0.8 19.2 0 8.8 0.8 17.6 2.4 25.6l-29.6 24.8-1.6 1.6c-4 4-4.8 9.6-3.2 14.4v0.8l2.4 6.4c8 20 19.2 38.4 32.8 55.2l0.8 0.8 1.6 1.6c4 4 9.6 4.8 14.4 3.2l36.8-14.4 4.8 3.2c12 8.8 24.8 16 39.2 21.6l7.2 38.4 0.8 1.6c1.6 4.8 5.6 8.8 11.2 9.6h0.8l7.2 0.8c8.8 1.6 18.4 2.4 28 2.4 12 0 24-0.8 35.2-3.2h0.8l1.6-0.8c4.8-1.6 8.8-5.6 9.6-11.2l7.2-37.6 5.6-2.4c13.6-5.6 26.4-13.6 38.4-23.2l36 12.8 1.6 0.8c4.8 0.8 10.4-0.8 13.6-4.8l0.8-0.8 4-4.8c13.6-16.8 24-36 31.2-56v-0.8l0.8-1.6c0.8-4.8-0.8-10.4-4.8-13.6l-28.8-24.8z m-51.2-44l0.8 4c0.8 4.8 0.8 8.8 0.8 13.6 0 5.6-0.8 12-1.6 17.6l-2.4 15.2 28 24-2.4 5.6c-4 8-8.8 15.2-13.6 22.4l-34.4-12.8-12 9.6-4 3.2c-8 6.4-16 11.2-25.6 14.4l-14.4 5.6-6.4 36.8-6.4 0.8c-8.8 0-16.8 0-25.6-0.8l-6.4-36.8-14.4-5.6-4.8-1.6c-8.8-3.2-16.8-8.8-24.8-15.2l-12-9.6-35.2 12.8-4-5.6c-4.8-7.2-8.8-14.4-12-22.4l28-24.8-2.4-15.2-0.8-4c-0.8-4-0.8-8.8-0.8-12.8 0-6.4 0.8-12 1.6-17.6l2.4-15.2-28-24.8 2.4-5.6c4-8 8.8-15.2 13.6-22.4l35.2 12.8 12-9.6 4-3.2c8-6.4 16.8-11.2 25.6-14.4l14.4-5.6 7.2-36.8 6.4-0.8c8.8 0 16.8 0 25.6 0.8l6.4 36.8 13.6 5.6 4.8 1.6c8.8 4 16.8 9.6 24.8 16l12 9.6 34.4-12.8 4 5.6c4.8 7.2 8.8 14.4 12 22.4l-28 24 2.4 15.2z" p-id="20913" fill="#2c2c2c"></path></svg>