<?xml version="1.0" standalone="no"?><!DOCTYPE svg PUBLIC "-//W3C//DTD SVG 1.1//EN" "http://www.w3.org/Graphics/SVG/1.1/DTD/svg11.dtd"><svg t="1701228669602" class="icon" viewBox="0 0 1024 1024" version="1.1" xmlns="http://www.w3.org/2000/svg" p-id="16816" xmlns:xlink="http://www.w3.org/1999/xlink" width="200" height="200"><path d="M308.7 892.1c-6.6 0-12.8-3.1-19.8-9.7-5.1-4.9-8.3-13-8.3-21.3 0-7.9 2.9-15.1 8.3-20.4 6.2-6.3 12.9-9.4 19.8-9.4h59.1V722.4H157.5c-31.3 0-55.1-7.3-70.7-21.8-14-13-21.1-31.4-21.1-54.6V217.7c0-27.2 20.8-50.6 29.8-59.4 16-15.8 41-26.3 62-26.3h620.9c17.5 0 34.4 10.4 47.5 29.2 11.6 16.8 18.6 37.9 18.6 56.5v184.9l-2.7-1.1c-21.4-8.4-39.3-14.1-56.6-17.7l-1.6-0.3V217.7c0-17-9.9-24.9-16.5-24.9H157.5c-6.5 0-15.8 2.6-20.4 7.4-4.7 4.9-10.5 11.1-10.5 17.4v349.7H523l-0.2 2.2c-0.5 5.1-0.9 9.3-1.3 13-1 9.8-1.7 15.7-1.7 24.5 0 5.6 0.4 16.3 0.7 17.5-0.1-0.6-0.8-1.4-1.9-1.4v4h-392v17.7c0 13.8 12.4 16.6 30.9 16.6h369.6l0.4 1.5c4.5 18.1 11 36.6 19.7 56.6l1.2 2.8h-10.7v108.8h70.1c6.7 0 13.2 3.2 19.8 9.8 5.2 5.2 8.3 13.2 8.3 21.4 0 8-2.9 15.2-8.3 20.3-6.7 6.3-13.1 9.4-19.8 9.4H308.7z m168.8-60.9V722.4h-48.9v108.8h48.9z" fill="#ffffff" p-id="16817"></path><path d="M748 683.3c-39.1 0-70.9-31.8-70.9-70.9s31.8-70.9 70.9-70.9 70.9 31.8 70.9 70.9c0 39.1-31.8 70.9-70.9 70.9z m0-103.9c-18.2 0-33.1 14.8-33.1 33.1 0 18.2 14.8 33.1 33.1 33.1s33.1-14.8 33.1-33.1-14.8-33.1-33.1-33.1z m0 0" fill="#ffffff" p-id="16818"></path><path d="M747.5 814.6c-14.8 0-28.7-1.7-39.3-12-10.6-10.4-16.6-22.3-16.8-37.2-4.7-1.7-9.3-3.1-13.8-5.2-10.4 10-23.9 16.2-38.4 16.2h-0.5c-14.8 0-28.7-5.2-39.3-15.6-10.7-10.5-16.6-24.3-16.8-39.3-0.1-14.9 5.5-28.8 15.9-39.5-2.1-4.5-4-9.1-5.7-13.8-14.4-0.3-27.9-5.9-38.2-16-10.7-10.5-16.6-24.5-16.8-39.5-0.1-15 5.6-29.1 16.1-39.8 10.4-10.6 24.4-16.6 39.2-16.8 1.8-4.9 3.8-9.6 6-14.3-9.9-10.4-15.5-24-15.6-38.5-0.1-15 5.7-29.1 16.2-39.7 21.7-21.9 57.1-22.2 79.1-0.7 4.3-2 8.6-3.7 13-5.4 0.5-30.5 25.5-55.2 56.1-55.2s55.6 24.7 56.1 55.2c4.7 1.7 9.4 3.7 14 5.8 21.7-21 56.5-21 78.2 0.2 10.7 10.5 16.7 24.5 16.9 39.5 0.2 14.9-5.4 29-15.8 39.7 2.1 4.5 4 9.1 5.7 13.7 30.2 0.5 54.8 25 55.2 55.4 0.2 15-5.5 29.2-16 39.9-10.4 10.6-24.3 16.6-39.2 16.9-1.8 4.9-3.8 9.7-6 14.3 10 10.4 15.5 23.9 15.7 38.4 0.1 15-5.6 29.1-16.1 39.8-21.6 22-57.1 22.4-79.1 0.9-4.6 2.1-9.2 0-14 1.7-0.6 30.2-25.2 50.9-55.6 50.9h-0.4z m-75.3-96.3c3.4 0 6.8 0.9 9.8 2.7 10.9 6.7 22.8 11.6 35.2 14.7 5.2 1.3 9.6 4.7 12.1 9.4s2.9 10.3 1.1 15.3c-0.8 2.3-1.2 4.3-1.2 6.3 0 4.9 2 9.5 5.5 12.9 3.5 3.4 7.4 5.4 13 5.2 10.1-0.1 18.2-8.4 18.1-18.5 0-1.7-0.4-3.6-1.2-5.8-1.8-5-1.3-10.6 1.2-15.3 2.6-4.7 7-8.1 12.1-9.4 12.5-3 24.4-8 35.4-14.6 4.6-2.7 10.1-3.4 15.2-1.9s9.3 5.2 11.6 10c1 2.2 2.2 3.9 3.6 5.3 7.2 7.1 18.8 7 25.9-0.2 3.4-3.5 5.3-8.1 5.2-13 0-4.9-2-9.4-5.5-12.9-1.2-1.2-2.9-2.3-5-3.3-4.8-2.3-8.4-6.6-9.9-11.7s-0.8-10.6 2-15.2c6.7-11 11.7-23.1 14.8-35.6 1.3-5.2 4.7-9.6 9.4-12.1s10.2-3 15.3-1.2c2 0.7 4.1 1.1 6.3 1.2 4.9-0.1 9.5-2 12.9-5.5 3.4-3.5 5.3-8.2 5.2-13-0.1-10.1-9.1-17.5-18.5-18.1-1.8 0.3-3.6 0.4-5.8 1.2-5 1.8-10.6 1.4-15.3-1.1-4.7-2.5-8.1-6.9-9.4-12.1-3.1-12.4-8-24.3-14.6-35.2-2.8-4.6-3.5-10.1-1.9-15.2 1.5-5.1 5.1-9.3 9.9-11.6 2.2-1.1 4-2.3 5.3-3.6 3.4-3.5 5.3-8.1 5.2-13 0-4.9-2-9.5-5.5-12.9-7.2-7-18.8-6.9-25.9 0.3-1.2 1.2-2.3 2.9-3.3 5-2.3 4.8-6.5 8.4-11.6 10-5.1 1.5-10.7 0.8-15.2-2-11-6.7-22.9-11.6-35.4-14.6-5.2-1.3-9.6-4.7-12.1-9.4s-3-10.3-1.2-15.3c0.8-2.2 1.2-4.2 1.2-6.1 0-10.1-8.2-18.3-18.3-18.3-10.1 0-18.3 8.2-18.3 18.3 0 1.8 0.4 3.8 1.2 6.1 1.8 5 1.4 10.6-1.2 15.3-2.5 4.7-6.9 8.1-12.1 9.4-12.2 3-23.9 7.8-34.7 14.2-4.6 2.7-10.1 3.4-15.2 1.8-5.1-1.6-9.3-5.2-11.6-10-1-2.2-2.2-3.9-3.6-5.3-7.2-7.1-18.8-7-25.9 0.2-3.4 3.4-5.3 8.1-5.3 13s2 9.5 5.4 12.9c1.2 1.2 2.9 2.3 5 3.3 4.8 2.3 8.4 6.6 9.9 11.7s0.8 10.6-2 15.2c-6.8 11-11.8 23-14.9 35.6-1.3 5.2-4.7 9.6-9.4 12.1s-10.3 2.9-15.3 1.1c-2.3-0.8-4.2-1.3-6.2-1.2-5 0-9.5 2-13 5.5-3.4 3.5-5.3 8.1-5.3 13s2 9.5 5.5 12.9c3.4 3.4 8 5.3 12.8 5.2 1.6 0.2 3.7-0.4 6.1-1.2 5.1-1.7 10.6-1.3 15.3 1.3 4.7 2.5 8.1 6.9 9.3 12.1 3 12.5 7.9 24.4 14.5 35.4 2.8 4.6 3.4 10.1 1.9 15.2s-5.2 9.3-10 11.6c-2.2 1-3.9 2.2-5.3 3.6-3.4 3.5-5.3 8.1-5.2 13 0 4.9 2 9.5 5.5 12.9 3.5 3.4 8.7 5.9 13 5.3 4.9 0 9.5-2 12.9-5.5 1.2-1.2 2.3-2.8 3.3-5 2.3-4.8 6.6-8.4 11.7-10 1.9-0.6 3.7-0.8 5.5-0.8z m0 0" fill="#ffffff" p-id="16819"></path></svg>