<?xml version="1.0" standalone="no"?><!DOCTYPE svg PUBLIC "-//W3C//DTD SVG 1.1//EN" "http://www.w3.org/Graphics/SVG/1.1/DTD/svg11.dtd"><svg t="1701228650955" class="icon" viewBox="0 0 1024 1024" version="1.1" xmlns="http://www.w3.org/2000/svg" p-id="15736" xmlns:xlink="http://www.w3.org/1999/xlink" width="200" height="200"><path d="M374.17 344.678c29.081 118.58 93.184 144.18 142.95 144.18 96.87 0 125.133-90.932 141.926-144.999a19.11 19.11 0 0 0 9.012-6.349c3.686-4.505 4.915-10.444 3.686-16.179-1.638-7.168-3.277-14.131-4.71-21.094-11.47-53.658-22.528-104.448-72.09-139.879-4.3-3.072-9.626-4.096-14.746-3.072-1.843-7.782-5.734-15.155-11.059-20.89-13.721-14.745-34.611-15.974-55.091-16.178h-3.072c-20.07 0-40.96 1.228-54.886 16.179-4.916 5.53-8.602 12.083-10.65 19.251h-0.205c-5.939-1.434-12.083-0.205-16.793 3.686-53.044 43.828-61.85 98.919-71.066 157.287l-1.024 6.144c-0.82 5.53 0.614 11.059 4.3 15.36 3.278 3.891 8.193 6.349 13.518 6.553z m142.745 107.725c-51.814 0-87.04-35.84-106.905-109.158h211.763c-19.661 60.825-43.213 109.158-104.858 109.158z m-82.534-244.531l10.65 27.238c3.481 8.602 12.492 13.517 21.503 11.47s15.36-10.446 14.746-19.662c-1.229-18.432-3.891-56.73 2.867-64.102 2.458-2.662 11.469-4.096 26.829-4.096h2.662c5.94 0 23.757 0.205 27.444 4.096 6.348 6.963 3.89 45.67 2.662 62.26-0.614 9.215 5.53 17.407 14.336 19.66 8.806 2.048 18.022-2.458 21.504-11.06l10.445-25.394c21.913 24.985 29.286 57.753 37.888 97.484H398.54c6.349-38.502 13.721-70.656 35.84-97.894z m385.843 555.827c-9.83-57.139-21.914-124.518-38.093-193.331-4.505-19.66-20.48-45.466-41.574-56.115-29.082-14.541-58.983-25.805-90.522-37.479-12.493-4.71-24.985-9.42-37.888-14.336-9.216-3.686-19.66 0.615-23.961 9.626l-30.516 64.307c-0.41-6.758-1.024-14.54-1.433-23.961-0.615-10.036-8.807-18.023-18.842-18.023h-47.309c-10.035 0-18.432 7.987-18.841 18.023-0.41 9.216-1.024 16.793-1.434 23.347l-30.925-63.488a18.932 18.932 0 0 0-23.756-9.421l-34.407 13.312c-25.19 9.626-48.742 18.842-72.499 27.034-39.936 13.926-61.44 39.321-66.97 79.667-4.915 35.43-12.288 71.68-19.25 106.496-5.12 24.985-10.446 50.585-14.746 76.39-5.12 30.515 3.89 64.307 25.19 92.57 22.118 29.696 53.453 48.742 85.606 52.429a219.175 219.175 0 0 0 24.986 1.433c19.046 0 33.382-3.277 44.237-8.601 3.277 2.252 7.168 3.481 11.059 3.481h224.256c7.578 0 14.336-4.505 17.203-11.469 19.047 10.445 41.37 14.132 50.176 14.541 1.843 0.205 3.687 0.205 5.53 0.205 36.659 0 71.885-16.794 96.46-46.285 24.167-28.467 34.612-65.126 28.263-100.352z m-57.958 75.162c-16.59 20.275-41.165 32.153-67.175 32.563-1.229 0-2.662 0-3.891-0.205-12.902-0.614-44.851-10.24-45.875-22.528 0-1.433-0.205-2.867-0.205-4.505 0.614-8.602 1.229-18.023 2.867-24.986 1.843-7.578 4.301-11.469 5.12-12.083l0.205-0.205c32.973-25.395 46.08-70.86 50.995-104.243 3.072-17.203 4.301-33.383 3.482-47.309 0-4.506-0.205-9.011-0.205-13.517-0.41-10.24-8.806-18.227-18.842-18.227h-0.204c-10.24 0-18.637 8.192-18.842 18.637v0.614c-0.82 3.891-0.205 7.578 0 10.24l0.205 3.277c0 13.107-1.024 26.214-2.867 39.117-6.554 36.25-21.504 68.813-36.864 81.1-9.421 7.169-15.77 18.228-19.047 32.769-2.662 11.059-4.096 22.323-4.096 33.587l-0.41 5.53a297.14 297.14 0 0 1-1.228 19.046H417.792v-8.602a94.816 94.816 0 0 0-0.614-28.467l-0.205-3.072c-1.434-18.227-3.072-38.707-16.794-47.309-4.71-4.096-9.42-7.782-14.54-11.264-3.482-2.457-6.759-4.915-10.036-7.782a77.622 77.622 0 0 1-9.216-18.432 311.29 311.29 0 0 1-9.216-54.682c-0.41-13.107-0.41-26.214 0.205-39.526 0-2.048 0.205-4.301 0.205-6.349 0.41-10.445-7.783-19.251-18.227-19.66-10.445-0.41-19.252 7.986-19.456 18.431l-0.205 6.144-0.615 9.421c-0.614 10.24-1.024 18.432 0.615 34.611 1.229 24.986 4.71 45.67 10.854 63.283 3.482 13.108 8.602 22.938 15.975 31.335 8.192 11.264 18.227 19.66 30.105 25.6 0.82 3.072 1.229 8.601 1.639 12.493 0.41 3.89 0.614 7.782 1.228 11.673 0.41 7.373 0.41 14.746 0.41 20.685-1.229 6.758-5.12 16.998-36.66 16.998-6.143 0-13.106-0.41-20.684-1.228-21.504-2.458-43.827-16.384-59.392-37.274-14.95-19.866-21.504-42.803-18.022-62.669 4.3-24.78 9.42-49.971 14.336-74.752 7.168-35.225 14.54-71.68 19.66-108.134 3.892-26.215 15.156-39.322 41.78-48.538 24.576-8.806 49.152-17.817 73.318-27.443 5.94-2.253 11.878-4.506 18.022-6.963l45.876 93.389c3.686 7.782 12.083 11.878 20.48 10.24l9.83-1.844c8.602-1.638 14.746-8.806 15.36-17.612 0.82-14.746 1.434-24.986 2.253-35.43 0.614-6.76 1.024-13.313 1.433-21.505h11.47c0.409 8.602 1.023 15.565 1.638 22.733 0.819 10.65 1.433 21.094 2.457 36.045 0.41 8.192 6.144 15.36 14.131 17.408l9.421 2.457c8.807 2.253 17.818-2.048 21.709-10.24l45.67-96.05 21.71 8.191c30.514 11.469 59.391 22.119 86.63 35.635 8.601 4.096 18.841 18.637 21.504 30.31 15.77 67.175 27.852 133.735 37.478 189.85 5.12 23.962-2.253 49.152-19.046 69.223z m-229.99-165.479H495.82v56.32h-52.429v36.864h52.429v56.32h36.454v-56.32h52.429v-36.864h-52.429v-56.32z" p-id="15737" fill="#ffffff"></path></svg>