<?xml version="1.0" standalone="no"?><!DOCTYPE svg PUBLIC "-//W3C//DTD SVG 1.1//EN" "http://www.w3.org/Graphics/SVG/1.1/DTD/svg11.dtd"><svg t="1702006077844" class="icon" viewBox="0 0 1024 1024" version="1.1" xmlns="http://www.w3.org/2000/svg" p-id="20687" xmlns:xlink="http://www.w3.org/1999/xlink" width="200" height="200"><path d="M542.565783 134.533655L353.705639 88.078394v30.977028l0.122345 799.500337v29.057542l188.737799-46.456289c19.85388-4.129928 30.971888-13.865124 30.971888-30.969831V165.504514c-0.001028-17.102651-11.635149-26.737092-30.971888-30.970859z m-48.880578 434.530698a4.186474 4.186474 0 0 1 0 5.931181 4.066185 4.066185 0 0 1-2.955823 1.240932 4.190586 4.190586 0 0 1-2.975358-1.223454l-54.197976-54.19592a4.187502 4.187502 0 0 1 0-5.932208l54.197976-54.197976a4.186474 4.186474 0 0 1 5.931181 0 4.185446 4.185446 0 0 1 0 5.930152l-51.223647 51.224675 51.223647 51.222618z" fill="#000" p-id="20688"></path><path d="M493.685205 460.686908a4.186474 4.186474 0 0 0-5.931181 0l-54.197976 54.197976a4.187502 4.187502 0 0 0 0 5.932208l54.197976 54.19592a4.184418 4.184418 0 0 0 2.975358 1.223454 4.0631 4.0631 0 0 0 2.955823-1.240932 4.186474 4.186474 0 0 0 0-5.931181l-51.223647-51.222618 51.223647-51.224675a4.185446 4.185446 0 0 0 0-5.930152z" fill="#CCCCCC" p-id="20689"></path></svg>