<?xml version="1.0" standalone="no"?><!DOCTYPE svg PUBLIC "-//W3C//DTD SVG 1.1//EN" "http://www.w3.org/Graphics/SVG/1.1/DTD/svg11.dtd"><svg t="1722909235832" class="icon" viewBox="0 0 1024 1024" version="1.1" xmlns="http://www.w3.org/2000/svg" p-id="4273" xmlns:xlink="http://www.w3.org/1999/xlink" width="200" height="200"><path d="M721.92 972.8c-10.24 0-20.48-2.56-28.16-10.24L273.92 540.16c-15.36-15.36-15.36-38.4 0-53.76 15.36-15.36 38.4-15.36 53.76 0l422.4 422.4c15.36 15.36 15.36 38.4 0 53.76-7.68 7.68-17.92 10.24-28.16 10.24z" p-id="4274" fill="#ffffff"></path><path d="M302.08 550.4c-10.24 0-20.48-2.56-28.16-10.24-15.36-15.36-15.36-38.4 0-53.76L696.32 61.44c15.36-15.36 38.4-15.36 53.76 0 15.36 15.36 15.36 38.4 0 53.76L327.68 540.16c-7.68 7.68-17.92 10.24-25.6 10.24z" p-id="4275" fill="#ffffff"></path></svg>