<svg xmlns="http://www.w3.org/2000/svg" xmlns:xlink="http://www.w3.org/1999/xlink" fill="none" version="1.1" width="24" height="24" viewBox="0 0 24 24"><g><g><g><path d="M18.5863,24L5.41368,24C2.42488,24,0,21.5751,0,18.5863L0,5.41368C0,2.42488,2.42488,0,5.41368,0L18.5863,0C21.5751,0,24,2.42488,24,5.41368L24,18.5863C24,21.5751,21.5751,24,18.5863,24Z" fill="#2A9FEF" fill-opacity="1"/></g><g><path d="M11.998366786270141,4.7336626052856445C10.117506786270141,4.7336626052856445,8.375976786270142,5.261098605285644,6.982746786270141,6.146792605285644C5.576256786270141,7.039122605285645,4.531331786270141,8.302982605285644,4.043702786270142,9.755912605285644C3.8479877862701417,10.339742605285645,3.7418367862701416,10.960062605285644,3.7418367862701416,11.596962605285643C3.7418367862701416,13.985352605285645,5.204726786270141,16.078462605285644,7.427256786270142,17.312562605285645C7.626286786270142,17.421962605285643,7.729116786270142,17.660862605285644,7.642876786270142,17.873162605285643C7.477016786270141,18.277862605285645,7.264716786270141,18.665962605285642,7.012606786270142,19.030862605285645C6.932986786270142,19.143662605285645,7.032506786270142,19.299562605285644,7.168516786270142,19.263062605285647C7.931466786270142,19.060662605285643,8.644666786270141,18.768762605285644,9.291526786270142,18.400562605285643C9.527046786270141,18.264562605285647,9.795746786270142,18.221462605285645,10.06111678627014,18.274462605285645C10.681436786270142,18.397262605285647,11.331606786270141,18.463562605285645,12.001686786270142,18.463562605285645C16.56283678627014,18.463562605285645,20.258236786270142,15.388562605285644,20.258236786270142,11.600282605285646C20.258236786270142,7.808712605285645,16.559536786270144,4.733664123785645,11.998366786270141,4.7336626052856445Z" fill="#FFFFFF" fill-opacity="1"/></g></g></g></svg>