<?xml version="1.0" standalone="no"?><!DOCTYPE svg PUBLIC "-//W3C//DTD SVG 1.1//EN" "http://www.w3.org/Graphics/SVG/1.1/DTD/svg11.dtd"><svg t="1700816090319" class="icon" viewBox="0 0 1024 1024" version="1.1" xmlns="http://www.w3.org/2000/svg" p-id="8804" xmlns:xlink="http://www.w3.org/1999/xlink" width="200" height="200"><path d="M862.138182 252.16h-523.636364a34.909091 34.909091 0 0 1 0-69.818182h523.636364a34.909091 34.909091 0 0 1 0 69.818182z m0 290.909091h-523.636364a34.909091 34.909091 0 0 1 0-69.818182h523.636364a34.909091 34.909091 0 0 1 0 69.818182z m0 290.909091h-523.636364a34.909091 34.909091 0 0 1 0-69.818182h523.636364a34.909091 34.909091 0 0 1 0 69.818182zM149.178182 294.865455V139.636364h43.962182v155.229091h-43.985455z m76.776727 247.854545v44.916364H125.626182l50.059636-93.323637c2.304-4.352 3.490909-8.075636 3.490909-11.170909 0-5.748364-3.584-8.610909-10.682182-8.610909a10.100364 10.100364 0 0 0-10.496 10.24 12.334545 12.334545 0 0 0 3.956364 8.843636l-19.781818 35.374546C124.951273 517.818182 116.363636 502.458182 116.363636 482.909091c0-14.894545 5.236364-27.671273 15.685819-38.283636a51.688727 51.688727 0 0 1 38.260363-15.941819c15.383273 0 28.229818 5.376 38.562909 16.174546 10.309818 10.775273 15.453091 23.458909 15.453091 38.050909 0 8.541091-1.908364 16.523636-5.818182 23.970909L200.145455 542.72h25.809454z m-95.976727 177.431273h82.129454l-25.134545 59.810909c8.843636 6.050909 15.36 12.730182 19.549091 20.014545 4.189091 7.307636 6.283636 15.988364 6.283636 26.088728 0 15.499636-5.376 28.043636-16.174545 37.585454-10.775273 9.541818-24.692364 14.312727-41.774546 14.312727a92.858182 92.858182 0 0 1-25.367272-3.723636v-43.752727c6.842182 3.072 13.032727 4.608 18.618181 4.608 5.445818 0 9.658182-1.536 12.683637-4.724364 3.025455-3.165091 4.561455-7.726545 4.561454-13.637818a18.152727 18.152727 0 0 0-8.029091-15.36c-5.376-3.863273-12.520727-5.818182-21.527272-5.818182l11.380363-30.487273h-17.221818v-44.916363z" fill="#ffffff" p-id="8805"></path></svg>