<svg xmlns="http://www.w3.org/2000/svg" xmlns:xlink="http://www.w3.org/1999/xlink" fill="none" version="1.1" width="24" height="24" viewBox="0 0 24 24"><g><g><g><path d="M18.5853,24L5.41472,24C2.42523,24,0,21.5748,0,18.5853L0,5.41472C-2.67385e-7,2.42523,2.42523,0,5.41472,0L18.5853,0C21.5748,0,24,2.42523,24,5.41472L24,18.5853C24,21.5748,21.5748,24,18.5853,24Z" fill="#00E560" fill-opacity="1"/></g><g><path d="M7.440412595214844,4.528044881286621L9.494152595214842,7.426409881286621C9.700932595214844,7.717299881286621,9.718452595214844,8.106319881286622,9.539712595214844,8.414729881286622L8.782702595214843,9.721969881286622C8.607472595214844,10.023369881286621,8.617982595214844,10.398369881286621,8.810742595214844,10.685749881286622C9.396022595214845,11.55490988128662,10.787382595214844,13.401879881286622,12.700932595214844,14.568929881286621C13.058402595214844,14.786229881286621,13.499992595214843,14.81772988128662,13.878502595214844,14.64252988128662L15.252322595214844,14.011689881286621C15.455622595214844,13.91705988128662,15.693922595214843,13.931079881286621,15.883222595214844,14.050239881286622L18.939222595214844,15.939229881286622C19.265222595214844,16.13902988128662,19.391322595214845,16.54552988128662,19.244122595214844,16.896029881286623C18.953222595214843,17.600429881286622,18.378522595214843,18.65892988128662,17.48132259521484,18.84812988128662C16.12152259521484,19.135529881286622,13.068922595214843,18.431129881286623,9.280372595214843,14.61802988128662C5.491819595214844,10.804919881286622,4.373829595214843,7.72430988128662,4.766352495214844,5.765199881286621Q5.386679595214844,4.706783881286621,6.669392595214844,4.2757092812866215C6.953272595214844,4.177578281286621,7.268692595214844,4.2862233812866215,7.440412595214844,4.528044881286621Z" fill="#FFFFFF" fill-opacity="1"/></g></g></g></svg>