<?xml version="1.0" standalone="no"?><!DOCTYPE svg PUBLIC "-//W3C//DTD SVG 1.1//EN" "http://www.w3.org/Graphics/SVG/1.1/DTD/svg11.dtd"><svg t="1701228548782" class="icon" viewBox="0 0 1024 1024" version="1.1" xmlns="http://www.w3.org/2000/svg" p-id="7729" xmlns:xlink="http://www.w3.org/1999/xlink" width="200" height="200"><path d="M655.1 350.9h-384c-17.7 0-32-14.3-32-32V179.8c0-17.7 14.3-32 32-32h384.1c17.7 0 32 14.3 32 32v139.1c-0.1 17.7-14.4 32-32.1 32z m-352-64h320.1v-75.1H303.1v75.1zM591.1 798.5c-17.7 0-32-14.3-32-32V606.7c0-17.7 14.3-32 32-32s32 14.3 32 32v159.8c0 17.7-14.3 32-32 32z" p-id="7730" fill="#ffffff"></path><path d="M335.1 798.5c-17.7 0-32-14.3-32-32V318.9c0-17.7 14.3-32 32-32h256.1c17.7 0 32 14.3 32 32v159.8c0 17.7-14.3 32-32 32s-32-14.3-32-32V350.9H367.1v415.6c0 17.7-14.4 32-32 32z" p-id="7731" fill="#ffffff"></path><path d="M719.2 638.7h-128c-17.7 0-32-14.3-32-32s14.3-32 32-32h96v-64h-96c-17.7 0-32-14.3-32-32s14.3-32 32-32h128c17.7 0 32 14.3 32 32v128c0 17.7-14.4 32-32 32z" p-id="7732" fill="#ffffff"></path><path d="M820.1 702.8h-101c-17.7 0-32-14.3-32-32V414.6c0-17.7 14.3-32 32-32H820c17.7 0 32 14.3 32 32v256.2c0.1 17.7-14.3 32-31.9 32z m-69-64H788V446.6h-36.9v192.2z" p-id="7733" fill="#ffffff"></path></svg>