<?xml version="1.0" standalone="no"?><!DOCTYPE svg PUBLIC "-//W3C//DTD SVG 1.1//EN" "http://www.w3.org/Graphics/SVG/1.1/DTD/svg11.dtd"><svg t="1703468384954" class="icon" viewBox="0 0 1024 1024" version="1.1" xmlns="http://www.w3.org/2000/svg" p-id="16639" xmlns:xlink="http://www.w3.org/1999/xlink" width="200" height="200"><path d="M950.564718 265.083458L649.147426 20.981509C608.71964-11.770115 549.357321-5.117441 517.117441 34.798601L92.881559 558.824588c-29.169415 35.822089-27.122439 86.484758 1.535233 120.25987l3.070464 3.070465c2.558721 3.070465 5.629185 5.629185 9.211395 8.69965L61.665167 742.028986c-16.887556 19.446277-25.075462 44.009995-23.028485 69.597201 2.046977 25.075462 14.328836 48.103948 34.286856 63.968016l156.593703 126.912544c17.911044 14.328836 38.892554 21.493253 60.385807 21.493253 26.610695 0 52.709645-11.258371 71.644178-32.751624L409.651174 936.491754c40.427786 31.216392 98.766617 24.563718 130.494753-15.352324l147.382309-181.669165h204.697651v112.583708c0 15.864068 12.793603 29.169415 29.169415 29.169415 15.864068 0 29.169415-12.793603 29.169416-29.169415v-282.994503c0-15.864068-12.793603-29.169415-29.169416-29.169415s-29.169415 12.793603-29.169415 29.169415v112.583708h-157.617191l230.284857-284.529735c32.23988-39.916042 26.098951-99.278361-14.328835-132.029985zM318.048976 952.867566c-13.305347 15.352324-35.822089 16.887556-51.686157 4.093953l-156.593704-126.912543c-7.676162-6.14093-12.281859-14.84058-12.793603-24.051975-1.023488-9.723138 2.046977-18.934533 8.69965-26.09895l46.568716-53.221389 212.373813 172.969515-46.568715 53.221389zM919.348326 360.77961L495.112444 884.805597c-12.281859 15.352324-35.310345 17.911044-50.662669 5.117441l-19.958021-16.375812c-0.511744 0-0.511744-0.511744-1.023488-0.511744l-285.553224-232.331834c-10.234883-12.793603-10.746627-32.23988 0-45.545227l424.235883-524.025987c7.164418-8.69965 17.3993-13.305347 28.145927-13.305348 8.187906 0 15.864068 2.558721 22.516741 8.187907l214.42079 173.481259-0.511744 0.511744L639.936032 471.828086c-8.69965 10.746627-7.164418 26.610695 3.582209 35.822089 10.746627 8.69965 26.610695 7.164418 35.822089-3.582209l186.786607-231.82009s0-0.511744 0.511744-0.511744l48.103948 38.892554c14.84058 11.770115 17.3993 34.798601 4.605697 50.150924z" p-id="16640" fill="#2c2c2c"></path></svg>