<?xml version="1.0" standalone="no"?><!DOCTYPE svg PUBLIC "-//W3C//DTD SVG 1.1//EN" "http://www.w3.org/Graphics/SVG/1.1/DTD/svg11.dtd"><svg t="1703468557020" class="icon" viewBox="0 0 1024 1024" version="1.1" xmlns="http://www.w3.org/2000/svg" p-id="29609" xmlns:xlink="http://www.w3.org/1999/xlink" width="200" height="200"><path d="M554.666667 768v21.333333a21.333333 21.333333 0 0 1-21.333334 21.333334h-298.666666a21.333333 21.333333 0 0 1-21.333334-21.333334V768a21.333333 21.333333 0 0 1 21.333334-21.333333h298.666666a21.333333 21.333333 0 0 1 21.333334 21.333333zM390.314667 231.082667a53.333333 53.333333 0 0 1 72.874666-19.584L610.56 296.96c25.472 14.72 34.176 47.274667 19.498667 72.746667l-69.12 119.978666 240.725333 139.008a21.333333 21.333333 0 0 1 7.808 29.141334l-10.666667 18.474666a21.333333 21.333333 0 0 1-29.141333 7.808L529.066667 545.066667l-69.12 120.149333a53.333333 53.333333 0 0 1-67.712 22.186667l-5.205334-2.645334-147.413333-85.333333a53.333333 53.333333 0 0 1-19.498667-72.789333z m50.090666 41.216l-159.573333 277.034666 128.896 74.666667 159.573333-277.077333-128.853333-74.666667z" fill="#2c2c2c" p-id="29610"></path></svg>