<?xml version="1.0" standalone="no"?><!DOCTYPE svg PUBLIC "-//W3C//DTD SVG 1.1//EN" "http://www.w3.org/Graphics/SVG/1.1/DTD/svg11.dtd"><svg t="1703468766081" class="icon" viewBox="0 0 1024 1024" version="1.1" xmlns="http://www.w3.org/2000/svg" p-id="40482" xmlns:xlink="http://www.w3.org/1999/xlink" width="200" height="200"><path d="M732.5184 408.064a26.6496 26.6496 0 0 0 53.2992 0V238.08a48.9216 48.9216 0 0 0-48.64-46.2848H239.616a48.64 48.64 0 0 0-48.64 46.464v547.3536a48.64 48.64 0 0 0 51.2 46.08H371.2a25.9584 25.9584 0 0 0 26.6496-24.6016 23.04 23.04 0 0 0-6.912-16.6656 28.7232 28.7232 0 0 0-19.7632-7.9616h-101.8368a24.704 24.704 0 0 1-25.3696-23.04V264.2688a24.6784 24.6784 0 0 1 25.6-23.1936h437.76a24.2944 24.2944 0 0 1 25.3696 23.04z" fill="#2c2c2c" p-id="40483"></path><path d="M572.1344 806.2464l258.56-248.32-99.0976-93.952-258.56 248.32-13.1328 12.5952c-13.1072 45.1072-13.3376 81.92-0.5376 94.0032 16.6912 16.128 62.3616 10.3936 99.84-0.4352z m-37.504-24.6784a57.7024 57.7024 0 0 1-27.7504 7.168 56.32 56.32 0 0 1-11.8784-1.2544l-1.7152-0.3584-0.384-1.7152a53.5808 53.5808 0 0 1 6.2464-38.4l0.4864-0.6144 4.6336-4.352 225.28-215.808 36.096 34.4832-2.0224 1.9456L540.16 776.5504zM594.8672 322.56H350.208a23.04 23.04 0 1 0 0 45.8752h244.6592a23.04 23.04 0 1 0 0-45.8752zM394.24 562.7392h-45.056a23.04 23.04 0 1 0 0 45.9008H394.24a23.04 23.04 0 1 0 0-45.9008zM546.9696 442.0096H349.184a23.04 23.04 0 1 0 0 45.9008h197.7856a23.04 23.04 0 1 0 0-45.9008z" fill="#2c2c2c" p-id="40484"></path></svg>