<?xml version="1.0" standalone="no"?><!DOCTYPE svg PUBLIC "-//W3C//DTD SVG 1.1//EN" "http://www.w3.org/Graphics/SVG/1.1/DTD/svg11.dtd"><svg t="1701228782592" class="icon" viewBox="0 0 1024 1024" version="1.1" xmlns="http://www.w3.org/2000/svg" p-id="22145" xmlns:xlink="http://www.w3.org/1999/xlink" width="200" height="200"><path d="M408.132267 798.788267a26.180267 26.180267 0 0 1 0 52.3264H266.581333A95.9488 95.9488 0 0 1 170.666667 755.165867V266.581333A95.9488 95.9488 0 0 1 266.615467 170.666667h418.7136a95.9488 95.9488 0 0 1 95.914666 95.9488v106.427733a26.180267 26.180267 0 1 1-52.3264 0V266.615467c0-24.064-19.524267-43.6224-43.588266-43.6224H266.581333c-24.098133 0-43.6224 19.5584-43.6224 43.6224v488.5504c0 24.098133 19.524267 43.6224 43.6224 43.6224h141.5168z m208.213333-71.7824l108.270933-108.270934-35.976533-35.976533-108.270933 108.270933 36.010666 35.976534zM580.266667 763.0848l-35.976534-35.976533-6.212266 6.2464-18.090667 54.0672 54.0672-18.090667 6.212267-6.2464z m180.4288-180.4288l31.607466-31.607467-35.976533-35.976533-31.607467 31.607467 35.976534 35.976533z m-22.289067-121.617067a25.463467 25.463467 0 0 1 36.0448-0.034133l71.953067 71.953067a25.463467 25.463467 0 0 1-0.068267 36.0448l-240.571733 240.571733a25.6 25.6 0 0 1-9.966934 6.144l-108.168533 36.181333a25.3952 25.3952 0 0 1-32.1536-32.1536l36.181333-108.1344a25.6 25.6 0 0 1 6.144-9.966933l240.605867-240.605867z m-117.3504 58.845867h-324.266667c-14.677333 0-23.722667-9.728-23.722666-25.6s9.045333-25.6 23.7568-25.6h324.232533c14.677333 0 23.722667 9.728 23.722667 25.6s-9.045333 25.6-23.722667 25.6z m0-127.351467h-324.266667c-14.677333 0-23.722667-9.728-23.722666-25.6s9.045333-25.6 23.7568-25.6h324.232533c14.677333 0 23.722667 9.728 23.722667 25.6s-9.045333 25.6-23.722667 25.6z m-138.9568 242.312534H296.823467c-14.677333 0-23.7568-9.728-23.7568-25.6s9.045333-25.6 23.7568-25.6h185.275733c14.677333 0 23.722667 9.728 23.722667 25.6s-9.045333 25.6-23.722667 25.6z" fill="#ffffff" p-id="22146"></path></svg>