<?xml version="1.0" standalone="no"?><!DOCTYPE svg PUBLIC "-//W3C//DTD SVG 1.1//EN" "http://www.w3.org/Graphics/SVG/1.1/DTD/svg11.dtd"><svg t="1703468231144" class="icon" viewBox="0 0 1024 1024" version="1.1" xmlns="http://www.w3.org/2000/svg" p-id="11102" xmlns:xlink="http://www.w3.org/1999/xlink" width="200" height="200"><path d="M571.392 180.224H450.56v59.392h61.44v59.392h-59.392v59.392H512v59.392h-59.392v59.392H512v59.392h-59.392v59.392H512V655.36h-59.392v59.392H512v59.392h-59.392v59.392H573.44V180.224z m61.44 0v722.944H391.168V120.832h241.664v59.392z m323.584 673.792c-12.288-6.144-30.72-12.288-49.152-12.288-18.432 0-30.72 6.144-49.152 12.288-24.576 18.432-55.296 30.72-92.16 30.72-36.864 0-67.584-12.288-92.16-30.72l43.008-43.008c12.288 6.144 30.72 12.288 49.152 12.288 18.432 0 30.72-6.144 49.152-12.288 24.576-18.432 55.296-30.72 92.16-30.72 36.864 0 67.584 12.288 92.16 30.72 6.144 6.144 12.288 6.144 24.576 12.288v63.488c-24.576-8.192-49.152-14.336-67.584-32.768z m-751.616 0c-24.576 18.432-55.296 30.72-92.16 30.72s-67.584-12.288-92.16-30.72c-6.144-6.144-12.288-6.144-18.432-6.144v-63.488c24.576 6.144 43.008 12.288 61.44 24.576 12.288 6.144 30.72 12.288 49.152 12.288 18.432 0 30.72-6.144 49.152-12.288 24.576-18.432 55.296-30.72 86.016-30.72s67.584 12.288 92.16 30.72l-43.008 43.008c-12.288-6.144-30.72-12.288-49.152-12.288-12.288 2.048-30.72 8.192-43.008 14.336z m751.616-188.416c-12.288-6.144-30.72-12.288-49.152-12.288-18.432 0-30.72 6.144-49.152 12.288-24.576 18.432-55.296 30.72-92.16 30.72-36.864 0-67.584-12.288-92.16-30.72l43.008-43.008c12.288 6.144 30.72 12.288 49.152 12.288 18.432 0 30.72-6.144 49.152-12.288 24.576-18.432 55.296-30.72 92.16-30.72 36.864 0 67.584 12.288 92.16 30.72 6.144 6.144 12.288 6.144 24.576 12.288v61.44c-24.576-6.144-49.152-12.288-67.584-30.72z m-751.616 0c-24.576 18.432-55.296 30.72-92.16 30.72s-67.584-12.288-92.16-30.72c-6.144-6.144-12.288-6.144-18.432-6.144v-63.488c24.576 6.144 43.008 12.288 61.44 24.576 10.24 8.192 28.672 14.336 49.152 14.336 18.432 0 30.72-6.144 49.152-12.288 24.576-18.432 55.296-30.72 86.016-30.72s67.584 12.288 92.16 30.72l-43.008 43.008c-12.288-6.144-30.72-12.288-49.152-12.288-12.288 0-30.72 6.144-43.008 12.288z m751.616-188.416c-12.288-6.144-30.72-12.288-49.152-12.288-18.432 0-30.72 6.144-49.152 12.288-24.576 18.432-55.296 30.72-92.16 30.72-36.864 0-67.584-12.288-92.16-30.72l43.008-43.008c12.288 6.144 30.72 12.288 49.152 12.288 18.432 0 30.72-6.144 49.152-12.288 24.576-18.432 55.296-30.72 92.16-30.72 36.864 0 67.584 12.288 92.16 30.72 6.144 6.144 12.288 6.144 24.576 12.288v63.488c-24.576-6.144-49.152-12.288-67.584-32.768z m-751.616 0c-24.576 18.432-55.296 30.72-92.16 30.72s-67.584-12.288-92.16-30.72C12.288 471.04 6.144 471.04 0 471.04v-61.44c24.576 6.144 43.008 12.288 61.44 24.576 12.288 6.144 30.72 12.288 49.152 12.288 18.432 0 30.72-6.144 49.152-12.288 24.576-18.432 55.296-30.72 86.016-30.72s67.584 12.288 92.16 30.72l-43.008 43.008c-8.192-6.144-28.672-12.288-47.104-12.288-12.288 0-30.72 6.144-43.008 12.288z m751.616-186.368c-12.288-6.144-30.72-12.288-49.152-12.288-18.432 0-30.72 6.144-49.152 12.288-24.576 18.432-55.296 30.72-92.16 30.72-36.864 0-67.584-12.288-92.16-30.72l43.008-43.008c12.288 6.144 30.72 12.288 49.152 12.288 18.432 0 30.72-6.144 49.152-12.288 24.576-18.432 61.44-30.72 92.16-30.72 36.864 0 67.584 12.288 92.16 30.72 6.144 6.144 12.288 6.144 24.576 12.288v63.488c-24.576-8.192-49.152-14.336-67.584-32.768z m-751.616 0c-24.576 18.432-61.44 30.72-92.16 30.72s-67.584-12.288-92.16-30.72c-6.144 0-12.288-6.144-18.432-6.144v-69.632c24.576 6.144 43.008 12.288 61.44 24.576 12.288 6.144 30.72 12.288 49.152 12.288 18.432 0 30.72-6.144 49.152-12.288 24.576-12.288 55.296-24.576 86.016-24.576s67.584 12.288 92.16 30.72l-43.008 43.008c-12.288-6.144-30.72-12.288-49.152-12.288-12.288 2.048-30.72 8.192-43.008 14.336z m0 0" fill="#ffffff" p-id="11103"></path></svg>