<?xml version="1.0" standalone="no"?><!DOCTYPE svg PUBLIC "-//W3C//DTD SVG 1.1//EN" "http://www.w3.org/Graphics/SVG/1.1/DTD/svg11.dtd"><svg t="1703468320559" class="icon" viewBox="0 0 1024 1024" version="1.1" xmlns="http://www.w3.org/2000/svg" p-id="12565" xmlns:xlink="http://www.w3.org/1999/xlink" width="200" height="200"><path d="M510.293333 318.506667m-42.069333 0a42.069333 42.069333 0 1 0 84.138667 0 42.069333 42.069333 0 1 0-84.138667 0Z" fill="#2c2c2c" p-id="12566"></path><path d="M577.152 313.856l260.650667-210.56L733.312 0l-204.629333 254.037333c26.752 7.594667 46.506667 31.189333 48.469333 59.818667zM496.853333 252.544L292.821333 0 189.482667 104.533333l254.421333 204.928a67.157333 67.157333 0 0 1 52.949333-56.917333zM444.117333 329.301333l-257.962666 207.786667 103.338666 104.533333 207.744-257.152a67.114667 67.114667 0 0 1-53.12-55.168zM522.837333 384.554667l207.104 257.066666 104.576-103.338666-258.048-208.426667a67.2 67.2 0 0 1-53.632 54.698667zM357.76 612.352l-34.261333 313.685333h374.186666l-35.285333-313.685333-133.717333-178.474667-18.346667-7.210666-13.482667 9.002666zM290.474667 985.557333h437.461333V1024H290.474667z" fill="#2c2c2c" p-id="12567"></path></svg>